<?xml version="1.0" encoding="UTF-8"?>
<svg version="1.1" viewBox="0 0 500 500" xmlns="http://www.w3.org/2000/svg">
 <defs>
  <linearGradient id="a" x1="266.36" x2="266.36" y1="60.603" y2="384.99" gradientTransform="translate(3.8959 4.8699)" gradientUnits="userSpaceOnUse">
   <stop stop-color="#fff" offset="0"/>
   <stop stop-color="#e2e2e2" offset="1"/>
  </linearGradient>
 </defs>
 <rect width="500" height="500" fill-opacity="0"/>
 <g transform="translate(.27611 13.847)">
  <rect x="36.096" y="75.346" width="441.15" height="313.78" ry="0" color="#000000" fill="#929292" stroke="#ababab" stroke-width="4.942"/>
  <rect x="24.349" y="81.026" width="441.15" height="313.78" ry="0" color="#000000" fill="url(#a)" stroke="#bdbdbd" stroke-width="9.242"/>
  <g fill="#b4b4b4">
   <rect x="47.843" y="154.86" width="193.17" height="80.221" color="#000000"/>
   <rect x="43.601" y="99.129" width="400.69" height="3.5496" color="#000000"/>
   <rect x="43.601" y="145.27" width="400.69" height="3.5496" color="#000000"/>
   <rect x="50.453" y="104.81" width="43.071" height="37.626" color="#000000"/>
   <rect x="249.49" y="160.18" width="190.56" height="3.5496" color="#000000"/>
   <rect x="254.06" y="171.54" width="190.56" height="3.5496" color="#000000"/>
   <rect x="254.06" y="181.48" width="190.56" height="3.5496" color="#000000"/>
   <rect x="254.06" y="192.84" width="190.56" height="3.5496" color="#000000"/>
   <rect x="256.67" y="202.78" width="190.56" height="3.5496" color="#000000"/>
   <rect x="260.59" y="214.14" width="190.56" height="3.5496" color="#000000"/>
   <rect x="259.28" y="226.91" width="127.91" height="3.5496" color="#000000"/>
   <rect transform="scale(1,-1)" x="47.516" y="-321.33" width="364.46" height="3.5496" color="#000000"/>
   <rect transform="scale(1,-1)" x="44.507" y="-309.98" width="364.46" height="3.5496" color="#000000"/>
   <rect transform="scale(1,-1)" x="47.117" y="-300.04" width="364.46" height="3.5496" color="#000000"/>
   <rect transform="scale(1,-1)" x="47.117" y="-287.97" width="364.46" height="3.5496" color="#000000"/>
   <rect transform="scale(1,-1)" x="49.5" y="-278.74" width="364.46" height="3.5496" color="#000000"/>
   <rect transform="scale(1,-1)" x="51.768" y="-267.38" width="364.46" height="3.5496" color="#000000"/>
   <rect transform="scale(1,-1)" x="54.492" y="-254.6" width="244.64" height="3.5496" color="#000000"/>
   <rect transform="scale(-1,1)" x="-303.33" y="111.2" width="190.56" height="3.5496" color="#000000"/>
   <rect transform="scale(-1,1)" x="-298.76" y="122.56" width="190.56" height="3.5496" color="#000000"/>
   <rect transform="scale(-1,1)" x="-298.76" y="132.49" width="190.56" height="3.5496" color="#000000"/>
   <rect x="51.106" y="374.58" width="46.987" height="7.0992" color="#000000"/>
   <rect x="132.68" y="377.77" width="308.02" height="2.8397" color="#000000"/>
   <rect transform="scale(1,-1)" x="52.252" y="-334.82" width="364.46" height="3.5496" color="#000000"/>
   <rect transform="scale(1,-1)" x="50.947" y="-344.76" width="364.46" height="3.5496" color="#000000"/>
   <rect transform="scale(1,-1)" x="53.558" y="-355.41" width="364.46" height="3.5496" color="#000000"/>
   <rect transform="scale(1,-1)" x="56.168" y="-366.06" width="364.46" height="3.5496" color="#000000"/>
  </g>
 </g>
</svg>
